<svg width="846" height="288" id="svg" xmlns="http://www.w3.org/2000/svg">
    <rect x="0" y="0" width="846" height="288" fill="#9B2E69" fill-opacity="0.5"/>
    
      <rect
        x="104"
        y="198"
        width="167"
        height="119"
        opacity="0.87"
        fill="#E2724F"
      />
    
      <rect
        x="437"
        y="195"
        width="192"
        height="133"
        opacity="0.81"
        fill="#4E9397"
      />
    
      <rect
        x="287"
        y="193"
        width="49"
        height="172"
        opacity="0.80"
        fill="#9B2E69"
      />
    
      <rect
        x="285"
        y="173"
        width="177"
        height="70"
        opacity="0.82"
        fill="#E2724F"
      />
    
      <rect
        x="189"
        y="84"
        width="188"
        height="146"
        opacity="0.82"
        fill="#D93750"
      />
    
      <rect
        x="194"
        y="229"
        width="130"
        height="193"
        opacity="0.80"
        fill="#D93750"
      />
    
      <rect
        x="11"
        y="280"
        width="43"
        height="96"
        opacity="0.85"
        fill="#D93750"
      />
    
      <rect
        x="558"
        y="-50"
        width="132"
        height="62"
        opacity="0.85"
        fill="#D93750"
      />
    
      <rect
        x="551"
        y="257"
        width="36"
        height="70"
        opacity="0.85"
        fill="#4E9397"
      />
    
      <rect
        x="821"
        y="117"
        width="40"
        height="152"
        opacity="0.88"
        fill="#E2724F"
      />
    
      <rect
        x="586"
        y="196"
        width="187"
        height="214"
        opacity="0.86"
        fill="#9B2E69"
      />
    
      <rect
        x="286"
        y="24"
        width="96"
        height="39"
        opacity="0.83"
        fill="#D93750"
      />
    
      <rect
        x="161"
        y="264"
        width="126"
        height="151"
        opacity="0.80"
        fill="#D93750"
      />
    
      <rect
        x="616"
        y="38"
        width="133"
        height="140"
        opacity="0.86"
        fill="#9B2E69"
      />
    
      <rect
        x="320"
        y="18"
        width="77"
        height="197"
        opacity="0.84"
        fill="#9B2E69"
      />
    
      <rect
        x="559"
        y="241"
        width="126"
        height="106"
        opacity="0.88"
        fill="#F3DC7B"
      />
    
      <rect
        x="752"
        y="188"
        width="60"
        height="109"
        opacity="0.82"
        fill="#9B2E69"
      />
    
      <rect
        x="133"
        y="150"
        width="181"
        height="112"
        opacity="0.85"
        fill="#4E9397"
      />
    
      <rect
        x="17"
        y="172"
        width="165"
        height="57"
        opacity="0.81"
        fill="#F3DC7B"
      />
    
      <rect
        x="15"
        y="-48"
        width="164"
        height="27"
        opacity="0.80"
        fill="#E2724F"
      />
    
      <rect
        x="664"
        y="234"
        width="177"
        height="110"
        opacity="0.82"
        fill="#4E9397"
      />
    
      <rect
        x="127"
        y="52"
        width="142"
        height="97"
        opacity="0.86"
        fill="#E2724F"
      />
    
      <rect
        x="355"
        y="45"
        width="118"
        height="216"
        opacity="0.88"
        fill="#F3DC7B"
      />
    
      <rect
        x="784"
        y="4"
        width="116"
        height="127"
        opacity="0.84"
        fill="#F3DC7B"
      />
    
      <rect
        x="525"
        y="25"
        width="200"
        height="183"
        opacity="0.88"
        fill="#4E9397"
      />
    
      <rect
        x="497"
        y="-2"
        width="162"
        height="206"
        opacity="0.82"
        fill="#9B2E69"
      />
    
      <rect
        x="431"
        y="101"
        width="52"
        height="127"
        opacity="0.87"
        fill="#E2724F"
      />
    
      <rect
        x="-24"
        y="198"
        width="120"
        height="146"
        opacity="0.84"
        fill="#E2724F"
      />
    
      <rect
        x="66"
        y="215"
        width="175"
        height="204"
        opacity="0.84"
        fill="#4E9397"
      />
    
      <rect
        x="690"
        y="-27"
        width="30"
        height="48"
        opacity="0.86"
        fill="#9B2E69"
      />
    
      <rect
        x="373"
        y="169"
        width="199"
        height="161"
        opacity="0.87"
        fill="#F3DC7B"
      />
    
      <rect
        x="112"
        y="285"
        width="197"
        height="20"
        opacity="0.89"
        fill="#D93750"
      />
    
      <rect
        x="345"
        y="101"
        width="196"
        height="122"
        opacity="0.80"
        fill="#D93750"
      />
    
      <rect
        x="228"
        y="-43"
        width="34"
        height="203"
        opacity="0.82"
        fill="#E2724F"
      />
    
      <rect
        x="-33"
        y="17"
        width="90"
        height="123"
        opacity="0.89"
        fill="#F3DC7B"
      />
    
      <rect
        x="252"
        y="277"
        width="57"
        height="132"
        opacity="0.83"
        fill="#D93750"
      />
    
      <rect
        x="835"
        y="134"
        width="86"
        height="146"
        opacity="0.87"
        fill="#9B2E69"
      />
    
      <rect
        x="79"
        y="156"
        width="159"
        height="29"
        opacity="0.84"
        fill="#E2724F"
      />
    
      <rect
        x="271"
        y="256"
        width="142"
        height="72"
        opacity="0.88"
        fill="#D93750"
      />
    
      <rect
        x="33"
        y="286"
        width="51"
        height="66"
        opacity="0.81"
        fill="#9B2E69"
      />
    
      <rect
        x="396"
        y="274"
        width="157"
        height="152"
        opacity="0.80"
        fill="#4E9397"
      />
    
      <rect
        x="563"
        y="277"
        width="173"
        height="104"
        opacity="0.89"
        fill="#F3DC7B"
      />
    
      <rect
        x="379"
        y="229"
        width="82"
        height="134"
        opacity="0.81"
        fill="#F3DC7B"
      />
    
      <rect
        x="73"
        y="273"
        width="165"
        height="106"
        opacity="0.80"
        fill="#E2724F"
      />
    
      <rect
        x="225"
        y="130"
        width="194"
        height="36"
        opacity="0.88"
        fill="#D93750"
      />
    
      <rect
        x="165"
        y="14"
        width="168"
        height="43"
        opacity="0.85"
        fill="#F3DC7B"
      />
    
      <rect
        x="619"
        y="102"
        width="32"
        height="184"
        opacity="0.84"
        fill="#F3DC7B"
      />
    
      <rect
        x="297"
        y="-8"
        width="192"
        height="118"
        opacity="0.87"
        fill="#9B2E69"
      />
    
      <rect
        x="616"
        y="172"
        width="47"
        height="132"
        opacity="0.86"
        fill="#4E9397"
      />
    
      <rect
        x="306"
        y="220"
        width="128"
        height="110"
        opacity="0.87"
        fill="#D93750"
      />
    
      <rect
        x="75"
        y="181"
        width="208"
        height="147"
        opacity="0.88"
        fill="#9B2E69"
      />
    
      <rect
        x="-1"
        y="267"
        width="85"
        height="99"
        opacity="0.89"
        fill="#D93750"
      />
    
      <rect
        x="761"
        y="-5"
        width="80"
        height="136"
        opacity="0.80"
        fill="#D93750"
      />
    
      <rect
        x="786"
        y="3"
        width="209"
        height="26"
        opacity="0.89"
        fill="#9B2E69"
      />
    
      <rect
        x="39"
        y="158"
        width="112"
        height="65"
        opacity="0.85"
        fill="#D93750"
      />
    
      <rect
        x="572"
        y="187"
        width="23"
        height="21"
        opacity="0.86"
        fill="#E2724F"
      />
    
      <rect
        x="621"
        y="181"
        width="43"
        height="178"
        opacity="0.82"
        fill="#D93750"
      />
    
      <rect
        x="209"
        y="29"
        width="97"
        height="164"
        opacity="0.80"
        fill="#D93750"
      />
    
      <rect
        x="79"
        y="209"
        width="63"
        height="138"
        opacity="0.85"
        fill="#9B2E69"
      />
    
      <rect
        x="595"
        y="51"
        width="126"
        height="151"
        opacity="0.83"
        fill="#4E9397"
      />
    
      <rect
        x="533"
        y="170"
        width="122"
        height="101"
        opacity="0.83"
        fill="#9B2E69"
      />
    
      <rect
        x="146"
        y="16"
        width="108"
        height="158"
        opacity="0.85"
        fill="#9B2E69"
      />
    
      <rect
        x="343"
        y="-38"
        width="75"
        height="57"
        opacity="0.82"
        fill="#D93750"
      />
    
      <rect
        x="255"
        y="285"
        width="196"
        height="37"
        opacity="0.81"
        fill="#4E9397"
      />
    
      <rect
        x="607"
        y="10"
        width="42"
        height="213"
        opacity="0.86"
        fill="#E2724F"
      />
    
      <rect
        x="468"
        y="71"
        width="36"
        height="175"
        opacity="0.87"
        fill="#4E9397"
      />
    
      <rect
        x="62"
        y="-23"
        width="52"
        height="183"
        opacity="0.81"
        fill="#E2724F"
      />
    
      <rect
        x="752"
        y="175"
        width="217"
        height="174"
        opacity="0.88"
        fill="#D93750"
      />
    
      <rect
        x="334"
        y="99"
        width="35"
        height="42"
        opacity="0.80"
        fill="#9B2E69"
      />
    
      <rect
        x="587"
        y="247"
        width="47"
        height="85"
        opacity="0.87"
        fill="#E2724F"
      />
    
      <rect
        x="411"
        y="277"
        width="99"
        height="115"
        opacity="0.80"
        fill="#F3DC7B"
      />
    
      <rect
        x="-18"
        y="19"
        width="127"
        height="35"
        opacity="0.86"
        fill="#E2724F"
      />
    
      <rect
        x="33"
        y="133"
        width="195"
        height="183"
        opacity="0.81"
        fill="#4E9397"
      />
    
      <rect
        x="332"
        y="153"
        width="95"
        height="196"
        opacity="0.84"
        fill="#D93750"
      />
    
      <rect
        x="583"
        y="85"
        width="184"
        height="190"
        opacity="0.88"
        fill="#D93750"
      />
    
      <rect
        x="207"
        y="165"
        width="55"
        height="83"
        opacity="0.86"
        fill="#F3DC7B"
      />
    
      <rect
        x="836"
        y="80"
        width="66"
        height="131"
        opacity="0.82"
        fill="#E2724F"
      />
    
      <rect
        x="812"
        y="182"
        width="33"
        height="193"
        opacity="0.85"
        fill="#4E9397"
      />
    
      <rect
        x="295"
        y="180"
        width="74"
        height="93"
        opacity="0.80"
        fill="#9B2E69"
      />
    
      <rect
        x="-8"
        y="5"
        width="152"
        height="29"
        opacity="0.81"
        fill="#E2724F"
      />
    
      <rect
        x="448"
        y="43"
        width="158"
        height="208"
        opacity="0.83"
        fill="#E2724F"
      />
    
      <rect
        x="488"
        y="87"
        width="143"
        height="169"
        opacity="0.88"
        fill="#F3DC7B"
      />
    
      <rect
        x="615"
        y="69"
        width="213"
        height="108"
        opacity="0.81"
        fill="#9B2E69"
      />
    
      <rect
        x="576"
        y="21"
        width="107"
        height="141"
        opacity="0.81"
        fill="#4E9397"
      />
    
      <rect
        x="611"
        y="65"
        width="108"
        height="25"
        opacity="0.87"
        fill="#F3DC7B"
      />
    
      <rect
        x="181"
        y="268"
        width="107"
        height="185"
        opacity="0.84"
        fill="#4E9397"
      />
    
      <rect
        x="784"
        y="-24"
        width="54"
        height="182"
        opacity="0.86"
        fill="#4E9397"
      />
    
      <rect
        x="425"
        y="148"
        width="77"
        height="155"
        opacity="0.83"
        fill="#D93750"
      />
    
      <rect
        x="-5"
        y="247"
        width="112"
        height="204"
        opacity="0.84"
        fill="#D93750"
      />
    
      <rect
        x="-49"
        y="83"
        width="67"
        height="149"
        opacity="0.80"
        fill="#4E9397"
      />
    
      <rect
        x="633"
        y="78"
        width="219"
        height="49"
        opacity="0.82"
        fill="#E2724F"
      />
    
      <rect
        x="762"
        y="61"
        width="208"
        height="41"
        opacity="0.85"
        fill="#F3DC7B"
      />
    
      <rect
        x="592"
        y="-39"
        width="154"
        height="72"
        opacity="0.81"
        fill="#D93750"
      />
    
      <rect
        x="293"
        y="255"
        width="77"
        height="208"
        opacity="0.89"
        fill="#D93750"
      />
    
      <rect
        x="511"
        y="140"
        width="74"
        height="152"
        opacity="0.82"
        fill="#4E9397"
      />
    
      <rect
        x="634"
        y="102"
        width="139"
        height="131"
        opacity="0.83"
        fill="#D93750"
      />
    
      <rect
        x="429"
        y="140"
        width="196"
        height="129"
        opacity="0.83"
        fill="#9B2E69"
      />
    
      <rect
        x="756"
        y="0"
        width="113"
        height="205"
        opacity="0.84"
        fill="#9B2E69"
      />
    
      <rect
        x="398"
        y="129"
        width="212"
        height="99"
        opacity="0.82"
        fill="#D93750"
      />
    
      <rect
        x="407"
        y="88"
        width="145"
        height="146"
        opacity="0.80"
        fill="#9B2E69"
      />
    
  </svg>